<?xml version="1.0" encoding="UTF-8" standalone="no"?>
<!DOCTYPE svg PUBLIC "-//W3C//DTD SVG 1.1//EN" "http://www.w3.org/Graphics/SVG/1.1/DTD/svg11.dtd">
<svg width="100%" height="100%" viewBox="0 0 881 880" version="1.1" xmlns="http://www.w3.org/2000/svg" xmlns:xlink="http://www.w3.org/1999/xlink" xml:space="preserve" xmlns:affinity="https://www.affinity.studio/" style="fill-rule:evenodd;clip-rule:evenodd;stroke-linejoin:round;stroke-miterlimit:2;">
    <g transform="matrix(1,0,0,1,-1643.921577,-1152.751972)">
        <g transform="matrix(4.166667,0,0,4.166667,0,0)">
            <g transform="matrix(0.266722,0,0,0.345098,394.541178,276.660473)">
                <rect x="0" y="0" width="792" height="612" style="fill:rgb(29,29,27);"/>
            </g>
        </g>
        <g transform="matrix(4.166667,0,0,4.166667,0,0)">
            <g transform="matrix(1,0,0,1,15.951304,57.85931)">
                <g transform="matrix(0.417344,0,0,0.417344,411.029221,309.380753)">
                    <path d="M0,38.3L-8.985,38.3L-8.985,0L1.292,0L37.57,28.585L37.57,0L46.555,0L46.555,38.3L36.447,38.3L0,9.435L0,38.3Z" style="fill:rgb(243,242,238);fill-rule:nonzero;"/>
                </g>
                <g transform="matrix(0.417344,0,0,0.417344,456.168891,309.380753)">
                    <path d="M0,38.3L-50.317,38.3L-50.317,0L0,0L0,7.132L-41.332,7.132L-41.332,15.893L-1.123,15.893L-1.123,21.79L-41.332,21.79L-41.332,31.168L0,31.168L0,38.3Z" style="fill:rgb(243,242,238);fill-rule:nonzero;"/>
                </g>
                <g transform="matrix(0.417344,0,0,0.417344,479.277998,318.029171)">
                    <path d="M0,-2.527L0,-20.722L8.985,-20.722L8.985,-0.73C8.985,3.688 7.89,7.282 5.7,10.052C3.51,12.823 0.383,14.873 -3.679,16.202C-7.741,17.531 -12.561,18.195 -18.139,18.195C-23.681,18.195 -28.482,17.531 -32.544,16.202C-36.607,14.873 -39.732,12.823 -41.922,10.052C-44.112,7.282 -45.207,3.688 -45.207,-0.73L-45.207,-20.722L-36.222,-20.722L-36.222,-2.527C-36.222,0.543 -35.576,3.033 -34.285,4.942C-32.993,6.851 -31.009,8.255 -28.332,9.154C-25.655,10.052 -22.258,10.502 -18.139,10.502C-13.946,10.502 -10.521,10.052 -7.862,9.154C-5.205,8.255 -3.229,6.851 -1.938,4.942C-0.646,3.033 0,0.543 0,-2.527" style="fill:rgb(243,242,238);fill-rule:nonzero;"/>
                </g>
                <g transform="matrix(0.417344,0,0,0.417344,509.628988,309.380753)">
                    <path d="M0,38.3L-27.293,0.73L-27.068,0L-23.923,0L4.043,38.3L0,38.3ZM-5.728,28.528L-46.33,28.528L-46.33,25.889L-5.728,25.889L-5.728,28.528ZM-25.103,0L-24.822,0.73L-52.171,38.3L-56.214,38.3L-28.248,0L-25.103,0Z" style="fill:rgb(243,242,238);fill-rule:nonzero;"/>
                </g>
                <g transform="matrix(0.417344,0,0,0.417344,513.496476,317.373314)">
                    <path d="M0,-0.001C0,-3.445 0.533,-6.403 1.6,-8.874C2.667,-11.345 4.296,-13.385 6.486,-14.995C8.676,-16.604 11.456,-17.793 14.825,-18.561C18.195,-19.328 22.163,-19.712 26.731,-19.712C29.651,-19.712 32.664,-19.544 35.772,-19.207C38.879,-18.87 41.884,-18.449 44.786,-17.943C47.687,-17.438 50.298,-16.885 52.62,-16.287L51.946,-13.366C49.849,-13.89 47.415,-14.405 44.645,-14.911C41.874,-15.416 38.945,-15.846 35.857,-16.202C32.768,-16.558 29.651,-16.736 26.506,-16.736C22.238,-16.736 18.625,-16.389 15.668,-15.697C12.71,-15.004 10.323,-13.956 8.508,-12.552C6.691,-11.148 5.371,-9.407 4.548,-7.33C3.724,-5.252 3.313,-2.809 3.313,-0.001C3.313,2.807 3.724,5.25 4.548,7.328C5.371,9.405 6.691,11.146 8.508,12.55C10.323,13.954 12.71,15.003 15.668,15.695C18.625,16.388 22.238,16.734 26.506,16.734C29.239,16.734 31.962,16.585 34.677,16.285C37.391,15.986 40.003,15.621 42.511,15.19C45.019,14.76 47.265,14.339 49.25,13.926L49.25,-0.619L52.62,-0.619L52.62,16.285C50.298,16.884 47.687,17.446 44.786,17.97C41.884,18.494 38.879,18.916 35.772,19.233C32.664,19.551 29.651,19.711 26.731,19.711C22.163,19.711 18.195,19.326 14.825,18.559C11.456,17.792 8.676,16.613 6.486,15.021C4.296,13.431 2.667,11.39 1.6,8.9C0.533,6.411 0,3.444 0,-0.001" style="fill:rgb(243,242,238);fill-rule:nonzero;"/>
                </g>
                <g transform="matrix(0.417344,0,0,0.417344,561.143968,309.380753)">
                    <path d="M0,38.3L-48.464,38.3L-48.464,0L0,0L0,2.808L-45.151,2.808L-45.151,17.409L-1.123,17.409L-1.123,19.936L-45.151,19.936L-45.151,35.492L0,35.492L0,38.3Z" style="fill:rgb(243,242,238);fill-rule:nonzero;"/>
                </g>
                <g transform="matrix(0.417344,0,0,0.417344,435.924478,336.1589)">
                    <path d="M0,4.637L0,4.373L1.247,4.373L1.247,4.567C1.247,6.2 2.107,7.219 4.724,7.219C6.674,7.219 7.587,6.569 7.587,5.216C7.587,3.9 6.99,3.408 5.216,3.021L3.179,2.565C1.334,2.178 0.07,1.335 0.07,-0.561C0.07,-2.265 1.475,-3.741 4.268,-3.741C7.323,-3.741 8.658,-1.879 8.658,0.035L8.658,0.264L7.411,0.264L7.411,0.071C7.411,-1.546 6.568,-2.582 4.25,-2.582C2.3,-2.582 1.334,-1.931 1.334,-0.649C1.334,0.685 1.984,1.072 3.706,1.476L5.743,1.949C7.692,2.389 8.852,3.302 8.852,5.146C8.852,6.938 7.464,8.378 4.689,8.378C1.422,8.378 0,6.657 0,4.637" style="fill:rgb(243,242,238);fill-rule:nonzero;"/>
                </g>
                <g transform="matrix(0.417344,0,0,0.417344,442.887075,334.670859)">
                    <path d="M0,11.768L0,1.142L-4.162,1.142L-4.162,0L5.427,0L5.427,1.142L1.247,1.142L1.247,11.768L0,11.768Z" style="fill:rgb(243,242,238);fill-rule:nonzero;"/>
                </g>
                <g transform="matrix(0.417344,0,0,0.417344,447.013233,334.670859)">
                    <path d="M0,11.768L0,0L7.921,0L7.921,1.142L1.247,1.142L1.247,5.27L7.657,5.27L7.657,6.429L1.247,6.429L1.247,10.626L7.921,10.626L7.921,11.768L0,11.768Z" style="fill:rgb(243,242,238);fill-rule:nonzero;"/>
                </g>
                <g transform="matrix(0.417344,0,0,0.417344,452.458659,334.670859)">
                    <path d="M0,11.768L0,0L7.921,0L7.921,1.142L1.247,1.142L1.247,5.27L7.657,5.27L7.657,6.429L1.247,6.429L1.247,10.626L7.921,10.626L7.921,11.768L0,11.768Z" style="fill:rgb(243,242,238);fill-rule:nonzero;"/>
                </g>
                <g transform="matrix(0.417344,0,0,0.417344,457.904126,334.670859)">
                    <path d="M0,11.768L0,0L1.247,0L1.247,10.626L7.692,10.626L7.692,11.768L0,11.768Z" style="fill:rgb(243,242,238);fill-rule:nonzero;"/>
                </g>
                <g transform="matrix(0.417344,0,0,0.417344,466.493698,339.10556)">
                    <path d="M0,-9.484L0,0L2.722,0C5.848,0 7.183,-1.546 7.183,-4.742C7.183,-7.938 5.848,-9.484 2.722,-9.484L0,-9.484ZM-1.247,1.142L-1.247,-10.626L2.722,-10.626C6.27,-10.626 8.5,-8.342 8.5,-4.742C8.5,-1.141 6.27,1.142 2.722,1.142L-1.247,1.142Z" style="fill:rgb(243,242,238);fill-rule:nonzero;"/>
                </g>
                <g transform="matrix(0.417344,0,0,0.417344,472.188194,334.670859)">
                    <path d="M0,11.768L0,0L7.921,0L7.921,1.142L1.247,1.142L1.247,5.27L7.657,5.27L7.657,6.429L1.247,6.429L1.247,10.626L7.921,10.626L7.921,11.768L0,11.768Z" style="fill:rgb(243,242,238);fill-rule:nonzero;"/>
                </g>
                <g transform="matrix(0.417344,0,0,0.417344,477.494226,336.1589)">
                    <path d="M0,4.637L0,4.373L1.247,4.373L1.247,4.567C1.247,6.2 2.108,7.219 4.725,7.219C6.674,7.219 7.587,6.569 7.587,5.216C7.587,3.9 6.99,3.408 5.216,3.021L3.179,2.565C1.335,2.178 0.07,1.335 0.07,-0.561C0.07,-2.265 1.476,-3.741 4.268,-3.741C7.324,-3.741 8.659,-1.879 8.659,0.035L8.659,0.264L7.412,0.264L7.412,0.071C7.412,-1.546 6.569,-2.582 4.25,-2.582C2.301,-2.582 1.335,-1.931 1.335,-0.649C1.335,0.685 1.985,1.072 3.706,1.476L5.743,1.949C7.693,2.389 8.852,3.302 8.852,5.146C8.852,6.938 7.464,8.378 4.689,8.378C1.423,8.378 0,6.657 0,4.637" style="fill:rgb(243,242,238);fill-rule:nonzero;"/>
                </g>
                <g transform="matrix(0.417344,0,0,0.417344,318.94324,221.345181)">
                    <rect x="393.883" y="271.54" width="1.247" height="11.768" style="fill:rgb(243,242,238);"/>
                </g>
                <g transform="matrix(0.417344,0,0,0.417344,486.017817,337.126597)">
                    <path d="M0,0C0,-3.671 2.072,-6.06 5.479,-6.06C8.307,-6.06 10.292,-4.408 10.292,-1.791L10.292,-1.634L8.957,-1.634L8.957,-1.791C8.957,-3.776 7.851,-4.848 5.374,-4.848C2.582,-4.848 1.334,-3.267 1.334,0C1.334,3.267 2.599,4.848 5.462,4.848C7.886,4.848 9.08,3.864 9.08,1.756L9.08,1.159L5.005,1.159L5.005,0.053L10.31,0.053L10.31,5.884L9.168,5.884L9.168,3.934L9.098,3.934C8.536,5.269 7.078,6.06 5.234,6.06C1.949,6.06 0,3.706 0,0" style="fill:rgb(243,242,238);fill-rule:nonzero;"/>
                </g>
                <g transform="matrix(0.417344,0,0,0.417344,492.606682,334.670859)">
                    <path d="M0,11.768L0,0L1.353,0L6.638,7.833L7.885,9.678L7.991,9.678L7.991,0L9.255,0L9.255,11.768L7.885,11.768L2.564,3.935L1.335,2.125L1.247,2.125L1.247,11.768L0,11.768Z" style="fill:rgb(243,242,238);fill-rule:nonzero;"/>
                </g>
                <g transform="matrix(0.417344,0,0,0.417344,501.562265,336.1589)">
                    <path d="M0,4.637L0,4.373L1.247,4.373L1.247,4.567C1.247,6.2 2.108,7.219 4.725,7.219C6.675,7.219 7.588,6.569 7.588,5.216C7.588,3.9 6.99,3.408 5.217,3.021L3.18,2.565C1.335,2.178 0.07,1.335 0.07,-0.561C0.07,-2.265 1.476,-3.741 4.269,-3.741C7.324,-3.741 8.659,-1.879 8.659,0.035L8.659,0.264L7.412,0.264L7.412,0.071C7.412,-1.546 6.569,-2.582 4.251,-2.582C2.301,-2.582 1.335,-1.931 1.335,-0.649C1.335,0.685 1.985,1.072 3.706,1.476L5.743,1.949C7.693,2.389 8.853,3.302 8.853,5.146C8.853,6.938 7.465,8.378 4.689,8.378C1.423,8.378 0,6.657 0,4.637" style="fill:rgb(243,242,238);fill-rule:nonzero;"/>
                </g>
                <g transform="matrix(0.417344,0,0,0.417344,508.525071,334.670859)">
                    <path d="M0,11.768L0,1.142L-4.162,1.142L-4.162,0L5.428,0L5.428,1.142L1.247,1.142L1.247,11.768L0,11.768Z" style="fill:rgb(243,242,238);fill-rule:nonzero;"/>
                </g>
                <g transform="matrix(0.417344,0,0,0.417344,512.636538,336.679203)">
                    <path d="M0,2.319L0,-4.812L1.265,-4.812L1.265,2.319C1.265,4.831 2.301,5.92 4.883,5.92C7.43,5.92 8.483,4.831 8.483,2.319L8.483,-4.812L9.748,-4.812L9.748,2.319C9.748,5.392 7.851,7.131 4.883,7.131C1.88,7.131 0,5.392 0,2.319" style="fill:rgb(243,242,238);fill-rule:nonzero;"/>
                </g>
                <g transform="matrix(0.417344,0,0,0.417344,519.62138,339.10556)">
                    <path d="M0,-9.484L0,0L2.722,0C5.848,0 7.183,-1.546 7.183,-4.742C7.183,-7.938 5.848,-9.484 2.722,-9.484L0,-9.484ZM-1.247,1.142L-1.247,-10.626L2.722,-10.626C6.27,-10.626 8.5,-8.342 8.5,-4.742C8.5,-1.141 6.27,1.142 2.722,1.142L-1.247,1.142Z" style="fill:rgb(243,242,238);fill-rule:nonzero;"/>
                </g>
                <g transform="matrix(0.417344,0,0,0.417344,318.94324,221.345181)">
                    <rect x="494.49" y="271.54" width="1.247" height="11.768" style="fill:rgb(243,242,238);"/>
                </g>
                <g transform="matrix(0.417344,0,0,0.417344,531.948896,337.126597)">
                    <path d="M0,0C0,-3.267 -1.282,-4.848 -4.039,-4.848C-6.797,-4.848 -8.097,-3.267 -8.097,0C-8.097,3.267 -6.797,4.848 -4.039,4.848C-1.282,4.848 0,3.267 0,0M-9.413,0C-9.413,-3.671 -7.271,-6.06 -4.039,-6.06C-0.825,-6.06 1.317,-3.671 1.317,0C1.317,3.671 -0.825,6.06 -4.039,6.06C-7.271,6.06 -9.413,3.671 -9.413,0" style="fill:rgb(243,242,238);fill-rule:nonzero;"/>
                </g>
            </g>
        </g>
    </g>
</svg>
